<svg width="680" viewBox="0 0 680 620" xmlns="http://www.w3.org/2000/svg" style="background:#ffffff;font-family:Arial,sans-serif;">
<defs>
  <marker id="arrow" viewBox="0 0 10 10" refX="8" refY="5" markerWidth="6" markerHeight="6" orient="auto-start-reverse">
    <path d="M2 1L8 5L2 9" fill="none" stroke="#888780" stroke-width="1.5" stroke-linecap="round" stroke-linejoin="round"/>
  </marker>
</defs>

<!-- ── LAYER LABELS ── -->
<text x="8" y="100" font-size="12" fill="#888780" font-family="Arial,sans-serif">Ingest</text>
<text x="8" y="210" font-size="12" fill="#888780" font-family="Arial,sans-serif">Derive</text>
<text x="8" y="320" font-size="12" fill="#888780" font-family="Arial,sans-serif">Score</text>
<text x="8" y="420" font-size="12" fill="#888780" font-family="Arial,sans-serif">Gate</text>
<text x="8" y="535" font-size="12" fill="#888780" font-family="Arial,sans-serif">Output</text>

<!-- ── LANE SEPARATORS ── -->
<line x1="72" y1="148" x2="640" y2="148" stroke="#D3D1C7" stroke-width="0.5" stroke-dasharray="4 4"/>
<line x1="72" y1="258" x2="640" y2="258" stroke="#D3D1C7" stroke-width="0.5" stroke-dasharray="4 4"/>
<line x1="72" y1="368" x2="640" y2="368" stroke="#D3D1C7" stroke-width="0.5" stroke-dasharray="4 4"/>
<line x1="72" y1="478" x2="640" y2="478" stroke="#D3D1C7" stroke-width="0.5" stroke-dasharray="4 4"/>

<!-- ══ ROW 1 — INGEST ══ -->

<!-- External APIs -->
<rect x="80" y="72" width="130" height="56" rx="8" fill="#F1EFE8" stroke="#B4B2A9" stroke-width="0.5"/>
<text x="145" y="95" text-anchor="middle" font-size="14" font-weight="500" fill="#2C2C2A" font-family="Arial,sans-serif">External APIs</text>
<text x="145" y="113" text-anchor="middle" font-size="12" fill="#5F5E5A" font-family="Arial,sans-serif">Crunchbase · NewsAPI</text>

<!-- Web scan -->
<rect x="228" y="72" width="130" height="56" rx="8" fill="#F1EFE8" stroke="#B4B2A9" stroke-width="0.5"/>
<text x="293" y="95" text-anchor="middle" font-size="14" font-weight="500" fill="#2C2C2A" font-family="Arial,sans-serif">Web scan</text>
<text x="293" y="113" text-anchor="middle" font-size="12" fill="#5F5E5A" font-family="Arial,sans-serif">Scrape + LLM extract</text>

<!-- Scout -->
<rect x="376" y="72" width="130" height="56" rx="8" fill="#F1EFE8" stroke="#B4B2A9" stroke-width="0.5"/>
<text x="441" y="95" text-anchor="middle" font-size="14" font-weight="500" fill="#2C2C2A" font-family="Arial,sans-serif">Scout</text>
<text x="441" y="113" text-anchor="middle" font-size="12" fill="#5F5E5A" font-family="Arial,sans-serif">ICP discovery + evidence</text>

<!-- Monitor -->
<rect x="524" y="72" width="108" height="56" rx="8" fill="#F1EFE8" stroke="#B4B2A9" stroke-width="0.5"/>
<text x="578" y="95" text-anchor="middle" font-size="14" font-weight="500" fill="#2C2C2A" font-family="Arial,sans-serif">Monitor</text>
<text x="578" y="113" text-anchor="middle" font-size="12" fill="#5F5E5A" font-family="Arial,sans-serif">Diff-based alerts</text>

<!-- ══ ROW 2 — DERIVE ══ -->

<!-- signal_events -->
<rect x="148" y="170" width="240" height="56" rx="8" fill="#EEEDFE" stroke="#AFA9EC" stroke-width="0.5"/>
<text x="268" y="193" text-anchor="middle" font-size="14" font-weight="500" fill="#26215C" font-family="Arial,sans-serif">signal_events</text>
<text x="268" y="211" text-anchor="middle" font-size="12" fill="#534AB7" font-family="Arial,sans-serif">Normalised · deduped · resolved</text>

<!-- Deriver engine -->
<rect x="408" y="170" width="200" height="56" rx="8" fill="#EEEDFE" stroke="#AFA9EC" stroke-width="0.5"/>
<text x="508" y="193" text-anchor="middle" font-size="14" font-weight="500" fill="#26215C" font-family="Arial,sans-serif">Deriver engine</text>
<text x="508" y="211" text-anchor="middle" font-size="12" fill="#534AB7" font-family="Arial,sans-serif">Passthrough + pattern rules</text>

<!-- ══ ROW 3 — SCORE ══ -->

<!-- signal_instances -->
<rect x="80" y="282" width="160" height="56" rx="8" fill="#E1F5EE" stroke="#5DCAA5" stroke-width="0.5"/>
<text x="160" y="305" text-anchor="middle" font-size="14" font-weight="500" fill="#04342C" font-family="Arial,sans-serif">signal_instances</text>
<text x="160" y="323" text-anchor="middle" font-size="12" fill="#0F6E56" font-family="Arial,sans-serif">Core · pack-agnostic</text>

<!-- TRS engine -->
<rect x="262" y="282" width="160" height="56" rx="8" fill="#E1F5EE" stroke="#5DCAA5" stroke-width="0.5"/>
<text x="342" y="305" text-anchor="middle" font-size="14" font-weight="500" fill="#04342C" font-family="Arial,sans-serif">TRS engine</text>
<text x="342" y="323" text-anchor="middle" font-size="12" fill="#0F6E56" font-family="Arial,sans-serif">Momentum · Complexity</text>

<!-- ESL engine -->
<rect x="444" y="282" width="188" height="56" rx="8" fill="#E1F5EE" stroke="#5DCAA5" stroke-width="0.5"/>
<text x="538" y="305" text-anchor="middle" font-size="14" font-weight="500" fill="#04342C" font-family="Arial,sans-serif">ESL engine</text>
<text x="538" y="323" text-anchor="middle" font-size="12" fill="#0F6E56" font-family="Arial,sans-serif">BE × SM × CM × AM</text>

<!-- ══ ROW 4 — GATE ══ -->

<text x="342" y="385" text-anchor="middle" font-size="12" fill="#888780" font-family="Arial,sans-serif">OutreachScore = TRS × ESL</text>

<!-- Policy gate -->
<rect x="148" y="392" width="180" height="56" rx="8" fill="#FAECE7" stroke="#F0997B" stroke-width="0.5"/>
<text x="238" y="415" text-anchor="middle" font-size="14" font-weight="500" fill="#4A1B0C" font-family="Arial,sans-serif">Policy gate</text>
<text x="238" y="433" text-anchor="middle" font-size="12" fill="#993C1D" font-family="Arial,sans-serif">Cooldown · stability cap</text>

<!-- Bias audit -->
<rect x="352" y="392" width="180" height="56" rx="8" fill="#FAECE7" stroke="#F0997B" stroke-width="0.5"/>
<text x="442" y="415" text-anchor="middle" font-size="14" font-weight="500" fill="#4A1B0C" font-family="Arial,sans-serif">Bias audit</text>
<text x="442" y="433" text-anchor="middle" font-size="12" fill="#993C1D" font-family="Arial,sans-serif">Monthly skew check</text>

<!-- ══ ROW 5 — OUTPUT ══ -->

<!-- Lead feed -->
<rect x="80" y="498" width="140" height="56" rx="8" fill="#E6F1FB" stroke="#85B7EB" stroke-width="0.5"/>
<text x="150" y="521" text-anchor="middle" font-size="14" font-weight="500" fill="#042C53" font-family="Arial,sans-serif">Lead feed</text>
<text x="150" y="539" text-anchor="middle" font-size="12" fill="#185FA5" font-family="Arial,sans-serif">Ranked projection</text>

<!-- Daily briefing -->
<rect x="240" y="498" width="140" height="56" rx="8" fill="#E6F1FB" stroke="#85B7EB" stroke-width="0.5"/>
<text x="310" y="521" text-anchor="middle" font-size="14" font-weight="500" fill="#042C53" font-family="Arial,sans-serif">Daily briefing</text>
<text x="310" y="539" text-anchor="middle" font-size="12" fill="#185FA5" font-family="Arial,sans-serif">LLM summary</text>

<!-- ORE -->
<rect x="400" y="498" width="140" height="56" rx="8" fill="#E6F1FB" stroke="#85B7EB" stroke-width="0.5"/>
<text x="470" y="521" text-anchor="middle" font-size="14" font-weight="500" fill="#042C53" font-family="Arial,sans-serif">ORE</text>
<text x="470" y="539" text-anchor="middle" font-size="12" fill="#185FA5" font-family="Arial,sans-serif">Draft + rationale kit</text>

<!-- Human review -->
<rect x="560" y="498" width="72" height="56" rx="8" fill="#FAEEDA" stroke="#EF9F27" stroke-width="0.5"/>
<text x="596" y="515" text-anchor="middle" font-size="14" font-weight="500" fill="#412402" font-family="Arial,sans-serif">Human</text>
<text x="596" y="531" text-anchor="middle" font-size="14" font-weight="500" fill="#412402" font-family="Arial,sans-serif">review</text>
<text x="596" y="547" text-anchor="middle" font-size="12" fill="#854F0B" font-family="Arial,sans-serif">always</text>

<!-- ══ ARROWS ══ -->

<!-- External APIs → signal_events -->
<path d="M145 128 L145 158 L200 158 L200 170" fill="none" stroke="#888780" stroke-width="1" marker-end="url(#arrow)"/>
<!-- Web scan → signal_events -->
<path d="M293 128 L293 158 L268 158 L268 170" fill="none" stroke="#888780" stroke-width="1" marker-end="url(#arrow)"/>
<!-- Monitor → signal_events -->
<path d="M578 128 L578 158 L350 158 L350 170" fill="none" stroke="#888780" stroke-width="1" marker-end="url(#arrow)"/>
<!-- signal_events → Deriver -->
<line x1="388" y1="198" x2="406" y2="198" stroke="#888780" stroke-width="1" marker-end="url(#arrow)"/>
<!-- Deriver → signal_instances -->
<path d="M508 226 L508 258 L200 258 L200 282" fill="none" stroke="#888780" stroke-width="1" marker-end="url(#arrow)"/>
<!-- signal_instances → TRS -->
<line x1="240" y1="310" x2="260" y2="310" stroke="#888780" stroke-width="1" marker-end="url(#arrow)"/>
<!-- TRS → ESL -->
<line x1="422" y1="310" x2="442" y2="310" stroke="#888780" stroke-width="1" marker-end="url(#arrow)"/>
<!-- TRS → policy gate -->
<path d="M342 338 L342 368 L238 368 L238 392" fill="none" stroke="#888780" stroke-width="1" marker-end="url(#arrow)"/>
<!-- ESL → policy gate -->
<path d="M538 338 L538 368 L310 368 L310 392 L280 392" fill="none" stroke="#888780" stroke-width="1" marker-end="url(#arrow)"/>
<!-- ESL → bias audit -->
<path d="M538 338 L538 368 L442 368 L442 392" fill="none" stroke="#888780" stroke-width="1" marker-end="url(#arrow)"/>
<!-- Policy gate → Lead feed -->
<path d="M238 448 L238 468 L150 468 L150 498" fill="none" stroke="#888780" stroke-width="1" marker-end="url(#arrow)"/>
<!-- Policy gate → Daily briefing -->
<path d="M238 448 L238 468 L310 468 L310 498" fill="none" stroke="#888780" stroke-width="1" marker-end="url(#arrow)"/>
<!-- Policy gate → ORE -->
<path d="M328 448 L328 468 L470 468 L470 498" fill="none" stroke="#888780" stroke-width="1" marker-end="url(#arrow)"/>
<!-- ORE → Human review -->
<line x1="540" y1="526" x2="558" y2="526" stroke="#888780" stroke-width="1" marker-end="url(#arrow)"/>

<!-- Scout evidence-only note -->
<text x="441" y="143" text-anchor="middle" font-size="12" fill="#888780" font-family="Arial,sans-serif">evidence only</text>

<!-- No auto-send note -->
<text x="596" y="572" text-anchor="middle" font-size="12" fill="#888780" font-family="Arial,sans-serif">no auto-send</text>

</svg>
